<?xml version="1.0" encoding="UTF-8"?><svg viewBox="0 0 20 20" xmlns="http://www.w3.org/2000/svg"><title>ambox-style</title><g id="ambox-style" fill="none" fill-rule="evenodd"><g id="Group" transform="translate(2 1)"><path d="M16.09 10.44c-1.37-.326-3.422-2.752-4.825-4.612l-8.81 6.155 2.33 3.335c.816 1.169 2.28 1.81 4.02 1.66a23.12 23.12 0 0 1-1.583-1.988.357.357 0 0 1 .585-.409c.336.48 1.083 1.467 1.849 2.266.838-.189 1.722-.553 2.615-1.121-1.297-.822-2.184-2.354-2.23-2.436a.357.357 0 0 1 .619-.355c.011.02.991 1.709 2.271 2.347.931-.66 1.61-1.302 2.102-1.891-2.096-.398-3.142-1.86-3.194-1.934a.357.357 0 0 1 .584-.41c.009.012.353.49 1.023.936.63.42 1.326.673 2.075.759.586-.88.758-1.583.807-1.961a.31.31 0 0 0-.239-.341z" id="Combined-Shape" fill="#F5A623" fill-rule="nonzero"/><path d="M9.716 3.65a.928.928 0 0 0-1.293-.229L6.024 5.096 2.65.265a.62.62 0 0 0-.862-.153L.265 1.175a.619.619 0 0 0-.153.862l3.375 4.832-2.333 1.63a.928.928 0 0 0-.23 1.292l1.212 1.735 8.796-6.144A44.037 44.037 0 0 1 9.716 3.65z" id="Shape" fill="#774B20"/></g></g></svg>