<?xml version="1.0" encoding="UTF-8"?><svg xmlns="http://www.w3.org/2000/svg" width="24" height="24" viewBox="0 0 24 24" xmlns:xlink="http://www.w3.org/1999/xlink"><title>notification</title><defs><path id="a" d="M9.643 21.364c1.234 0 2.235-.956 2.235-2.136h-4.47c0 1.18 1 2.136 2.234 2.136z"/><mask id="b" width="4.471" height="2.136" x="0" y="0" fill="#fff"><use xlink:href="#a"/></mask></defs><g fill="none" fill-rule="evenodd" transform="translate(2 1)"><use stroke="#54595d" stroke-width="4" mask="url(#b)" xlink:href="#a"/><path fill="#54595d" d="M16.893 9.08v3.998l1.77 3.603v1.098H.623V16.68l1.77-3.603V9.08c0-2.894 1.822-5.41 4.475-6.47C7.13 1.327 8.284.383 9.642.383c1.357 0 2.51.944 2.773 2.227 2.653 1.06 4.477 3.576 4.477 6.47zM10.92 3.974H8.366c-2.438.553-4.255 2.64-4.255 5.14v4.474l-1.7 2.44h14.467l-1.702-2.44V9.114c.024-4.076-3.616-5.09-4.255-5.14z"/></g></svg>