<?xml version="1.0" encoding="utf-8"?><svg id="Layer_1" xmlns="http://www.w3.org/2000/svg" xmlns:xlink="http://www.w3.org/1999/xlink" viewBox="0 0 20 20"><style>.st0{clip-path:url(#SVGID_2_);fill:#f5a623}.st1{clip-path:url(#SVGID_4_);fill:#774b20}</style><g><g><defs><path id="SVGID_1_" d="M17.9 11.9c-1.4-.3-3.4-2.8-4.8-4.6l-8.8 6.2 2.3 3.3c.8 1.2 2.3 1.8 4 1.7-.8-.9-1.5-1.9-1.6-2-.1-.2 0-.4.1-.5.2-.1.4-.1.5.1.3.5 1.1 1.5 1.8 2.3.8-.2 1.7-.6 2.6-1.1-1.3-.8-2.2-2.4-2.2-2.4-.1-.2 0-.4.1-.5.2-.1.4 0 .5.1 0 0 1 1.7 2.3 2.3.9-.7 1.6-1.3 2.1-1.9-2.1-.4-3.1-1.9-3.2-1.9-.1-.2-.1-.4.1-.5.2-.1.4-.1.5.1a4.907 4.907 0 0 0 3.1 1.7c.6-.9.8-1.6.8-2 .1-.2 0-.3-.2-.4z"/></defs><clipPath id="SVGID_2_"><use xlink:href="#SVGID_1_" overflow="visible"/></clipPath><path class="st0" d="M-.7 2.3h23.9v21.2H-.7z"/></g><g><defs><path id="SVGID_3_" d="M11.6 5.2c-.3-.4-.9-.5-1.3-.2L7.9 6.6 4.5 1.8c-.2-.3-.6-.4-.9-.2L2.1 2.7c-.3.2-.3.6-.2.8l3.4 4.8L3 10c-.4.3-.5.9-.2 1.3L4 13l8.8-6.1c-.8-1-1.2-1.7-1.2-1.7z"/></defs><clipPath id="SVGID_4_"><use xlink:href="#SVGID_3_" overflow="visible"/></clipPath><path class="st1" d="M-3.2-3.5h20.9V18H-3.2z"/></g></g></svg>