<svg xmlns="http://www.w3.org/2000/svg" width="20" height="20" viewBox="0 0 20 20"><g fill-rule="evenodd"><path fill-rule="nonzero" d="M14 15h-2v2h2z"/><path fill-rule="nonzero" d="M14 9H8v2h6z"/><path fill-rule="nonzero" d="M14 3H3v2h11z"/><circle cx="18" cy="4" r="2" fill-rule="nonzero" transform="matrix(-1 0 0 1 36 0)"/><circle cx="18" cy="10" r="2" fill-rule="nonzero" transform="matrix(-1 0 0 1 36 0)"/><circle cx="18" cy="16" r="2" fill-rule="nonzero" transform="matrix(-1 0 0 1 36 0)"/><path d="M1.24 11.89L.162 10.777a.556.556 0 0 1 0-.783l1.856-1.833a.556.556 0 0 1 .783 0L3.89 9.239l-2.65 2.65z"/><path d="M4.467 9.828L10 15.361V18H7.361l-5.533-5.533z"/></g></svg>