<svg xmlns="http://www.w3.org/2000/svg" width="20" height="20" viewBox="0 0 20 20"><g fill-rule="evenodd"><path d="M5.025 7.052C5.344 7.018 5.669 7 6 7c3.866 0 7 2.403 7 5.367 0 .21-.015.419-.046.623a9.996 9.996 0 0 0 1.578-.194C16.54 13.825 18.362 14.226 20 14c-1.486-.773-2.389-1.53-2.709-2.268 1.656-1.01 2.71-2.53 2.71-4.232C20 4.462 16.642 2 12.5 2 8.563 2 5.335 4.224 5.024 7.052z"/><path d="M2.609 16.213c-.45.585-1.32 1.18-2.609 1.787 1.616.213 3.403-.13 5.363-1.025.21.017.422.025.637.025 3.314 0 6-2.015 6-4.5S9.314 8 6 8s-6 2.015-6 4.5c0 1.541 1.033 2.902 2.609 3.713zM6.5 12v3h-1v-3h1zM6 11a.5.5 0 1 1 0-1 .5.5 0 0 1 0 1z"/><path fill="#FFF" fill-rule="nonzero" d="M12.462 4.502c.915 0 1.538.584 1.538 1.4a1.416 1.416 0 0 1-.713 1.26c-.442.285-.567.473-.567.838v.21h-.78v-.25a1.184 1.184 0 0 1 .622-1.187c.417-.278.557-.472.557-.837a.646.646 0 0 0-.185-.465.656.656 0 0 0-.463-.196h-.052a.719.719 0 0 0-.514.19.708.708 0 0 0-.227.496v.052h-.79a1.46 1.46 0 0 1 1.403-1.51 1.22 1.22 0 0 1 .171 0zm-.019 5.562a.62.62 0 0 1-.622-.618.62.62 0 0 1 .622-.618.62.62 0 0 1 .623.618.62.62 0 0 1-.623.618z"/></g></svg>