<svg xmlns="http://www.w3.org/2000/svg" width="20" height="20" viewBox="0 0 20 20"><g fill-rule="evenodd"><path d="M14.975 7.052A9.178 9.178 0 0 0 14 7c-3.866 0-7 2.403-7 5.367 0 .21.016.419.047.623a9.996 9.996 0 0 1-1.578-.194C3.46 13.825 1.637 14.226 0 14c1.486-.773 2.39-1.53 2.709-2.268C1.054 10.722 0 9.202 0 7.5 0 4.462 3.358 2 7.5 2c3.936 0 7.164 2.224 7.475 5.052z"/><path d="M17.391 16.213c.45.585 1.32 1.18 2.609 1.787-1.616.213-3.403-.13-5.363-1.025-.21.017-.422.025-.637.025-3.314 0-6-2.015-6-4.5S10.686 8 14 8s6 2.015 6 4.5c0 1.541-1.033 2.902-2.609 3.713zM13.5 12v3h1v-3h-1zm.5-1a.5.5 0 1 0 0-1 .5.5 0 0 0 0 1z"/><path fill="#FFF" fill-rule="nonzero" d="M7.576 4.502c.915 0 1.537.584 1.537 1.4a1.416 1.416 0 0 1-.712 1.26c-.442.285-.567.473-.567.838v.21h-.78v-.25a1.184 1.184 0 0 1 .622-1.187c.417-.278.557-.472.557-.837a.646.646 0 0 0-.185-.465.656.656 0 0 0-.463-.196h-.053a.719.719 0 0 0-.513.19.708.708 0 0 0-.227.496v.052h-.79a1.46 1.46 0 0 1 1.403-1.51 1.22 1.22 0 0 1 .171 0zm-.019 5.562a.62.62 0 0 1-.622-.618.62.62 0 0 1 .622-.618.62.62 0 0 1 .623.618.62.62 0 0 1-.623.618z"/></g></svg>